<svg width="222" height="78" viewBox="0 0 222 78" fill="none" xmlns="http://www.w3.org/2000/svg">
<rect width="222" height="78" rx="2" fill="black"/>
<g clip-path="url(#clip0_550_444)">
<path fill-rule="evenodd" clip-rule="evenodd" d="M76.4591 24.5354C75.787 21.9668 73.7985 19.9408 71.2687 19.2463C66.6944 18 48.3411 18 48.3411 18C48.3411 18 29.9971 18 25.4135 19.2463C22.893 19.9312 20.9045 21.9575 20.2231 24.5354C19 29.1967 19 38.9284 19 38.9284C19 38.9284 19 48.6603 20.2231 53.3216C20.8951 55.8902 22.8836 57.9162 25.4135 58.6107C29.9971 59.857 48.3411 59.857 48.3411 59.857C48.3411 59.857 66.6944 59.857 71.2687 58.6107C73.7894 57.9258 75.7776 55.8995 76.4591 53.3216C77.6822 48.6603 77.6822 38.9286 77.6822 38.9286C77.6822 38.9286 77.6822 29.1967 76.4591 24.5354Z" fill="#FF0000"/>
<path fill-rule="evenodd" clip-rule="evenodd" d="M42.4785 47.8992L57.7231 38.9283L42.4785 29.9578V47.8992Z" fill="white"/>
<path fill-rule="evenodd" clip-rule="evenodd" d="M104.176 56.0802C103.019 55.2813 102.188 54.0445 101.702 52.3609C101.217 50.677 100.965 48.4415 100.965 45.6445V41.8394C100.965 39.0142 101.245 36.7502 101.805 35.0375C102.365 33.3254 103.243 32.0793 104.428 31.299C105.614 30.519 107.173 30.1196 109.105 30.1196C111.01 30.1196 112.531 30.519 113.679 31.3182C114.828 32.1171 115.668 33.3635 116.2 35.0567C116.732 36.7502 116.994 39.0142 116.994 41.8299V45.6352C116.994 48.4319 116.732 50.677 116.219 52.3702C115.705 54.0635 114.865 55.3098 113.698 56.0898C112.541 56.8698 110.963 57.2697 108.974 57.2697C106.939 57.2788 105.334 56.8794 104.176 56.0802ZM110.683 51.9708C111 51.1146 111.168 49.7161 111.168 47.7852V39.6135C111.168 37.7298 111.01 36.36 110.683 35.4849C110.366 34.6191 109.796 34.1816 108.984 34.1816C108.2 34.1816 107.649 34.6191 107.322 35.4849C107.005 36.3505 106.837 37.7298 106.837 39.6135V47.7852C106.837 49.7257 106.986 51.1242 107.294 51.9708C107.602 52.827 108.162 53.255 108.975 53.255C109.796 53.255 110.356 52.827 110.683 51.9708ZM193.301 45.7111V47.0337C193.301 48.7173 193.348 49.973 193.45 50.8196C193.543 51.6569 193.749 52.2751 194.057 52.6559C194.365 53.0362 194.841 53.236 195.485 53.236C196.354 53.236 196.951 52.8936 197.268 52.2085C197.586 51.5236 197.763 50.382 197.791 48.7839L202.785 49.0789C202.814 49.307 202.823 49.621 202.823 50.0204C202.823 52.4464 202.169 54.2537 200.872 55.4524C199.574 56.651 197.735 57.2503 195.355 57.2503C192.498 57.2503 190.5 56.3371 189.352 54.5106C188.204 52.6842 187.634 49.8683 187.634 46.0442V41.4685C187.634 37.5302 188.232 34.6666 189.417 32.8499C190.603 31.0424 192.638 30.1385 195.523 30.1385C197.511 30.1385 199.033 30.5097 200.097 31.2516C201.161 31.9935 201.908 33.1444 202.347 34.7143C202.776 36.2838 203 38.453 203 41.2116V45.7018H193.301V45.7111ZM194.038 34.6762C193.749 35.0473 193.553 35.656 193.45 36.4933C193.347 37.3303 193.301 38.6147 193.301 40.3173V42.201H197.539V40.3173C197.539 38.6334 197.483 37.3588 197.371 36.4933C197.259 35.6275 197.054 35.0092 196.764 34.6572C196.475 34.3052 196.017 34.1245 195.401 34.1245C194.785 34.1149 194.328 34.3052 194.038 34.6762ZM90.0798 45.2166L83.4893 20.9681H89.2396L91.5455 31.9556C92.1336 34.6668 92.563 36.9689 92.8431 38.881H93.011C93.2071 37.511 93.6365 35.2184 94.3089 31.9935L96.6985 20.9585H102.449L95.7838 45.2166V56.8509H90.0798V45.2166ZM135.692 30.6334V56.8413H131.165L130.66 53.6355H130.539C129.307 56.0613 127.459 57.2695 125.003 57.2695C123.295 57.2695 122.035 56.6987 121.223 55.5571C120.41 54.4155 120.009 52.6367 120.009 50.2109V30.6334H125.797V49.8778C125.797 51.048 125.918 51.8852 126.17 52.3798C126.422 52.8744 126.842 53.1313 127.431 53.1313C127.935 53.1313 128.42 52.9789 128.877 52.6652C129.335 52.3513 129.68 51.9516 129.904 51.4666V30.6331L135.692 30.6334ZM165.397 30.6334V56.8413H160.87L160.366 53.6355H160.244C159.012 56.0613 157.164 57.2695 154.708 57.2695C153 57.2695 151.74 56.6987 150.928 55.5571C150.116 54.4155 149.714 52.6367 149.714 50.2109V30.6334H155.502V49.8778C155.502 51.048 155.623 51.8852 155.875 52.3798C156.127 52.8744 156.548 53.1313 157.136 53.1313C157.64 53.1313 158.125 52.9789 158.583 52.6652C159.04 52.3513 159.385 51.9516 159.61 51.4666V30.6331L165.397 30.6334Z" fill="white"/>
<path fill-rule="evenodd" clip-rule="evenodd" d="M151.431 25.7151H145.681V56.8412H140.014V25.7151H134.264V20.9683H151.422V25.7151H151.431ZM184.562 34.8283C184.208 33.1731 183.648 31.9745 182.863 31.2326C182.079 30.4905 181.006 30.1195 179.633 30.1195C178.569 30.1195 177.58 30.4239 176.656 31.0424C175.731 31.651 175.022 32.4598 174.518 33.4585H174.471V19.6458H168.889V56.8508H173.668L174.256 54.368H174.378C174.826 55.2527 175.498 55.9472 176.394 56.4607C177.29 56.9745 178.28 57.2313 179.372 57.2313C181.333 57.2313 182.77 56.3085 183.695 54.4725C184.618 52.6367 185.076 49.7637 185.076 45.8539V41.7062C185.085 38.7762 184.908 36.4834 184.562 34.8283ZM179.251 45.5208C179.251 47.4331 179.176 48.9265 179.017 50.011C178.868 51.0956 178.607 51.866 178.243 52.3227C177.878 52.7792 177.393 53.0076 176.777 53.0076C176.301 53.0076 175.862 52.8936 175.451 52.6652C175.05 52.4368 174.714 52.0944 174.462 51.6376V36.7501C174.658 36.0365 174.994 35.4563 175.47 34.9999C175.946 34.5431 176.459 34.3147 177.02 34.3147C177.608 34.3147 178.065 34.5525 178.383 35.0185C178.7 35.4849 178.924 36.2838 179.055 37.3873C179.176 38.5004 179.241 40.0795 179.241 42.1341V45.5208H179.251Z" fill="white"/>
</g>
<defs>
<clipPath id="clip0_550_444">
<rect width="184" height="42" fill="white" transform="translate(19 18)"/>
</clipPath>
</defs>
</svg>
